<?xml version="1.0" encoding="utf-8"?>
<!-- Generator: Adobe Illustrator 19.2.0, SVG Export Plug-In . SVG Version: 6.00 Build 0)  -->
<svg xmlns="http://www.w3.org/2000/svg" xmlns:xlink="http://www.w3.org/1999/xlink" version="1.1" id="cloudarrow" x="0px" y="0px" viewBox="0 0 211.3145 216.2787" enable-background="new 0 0 211.3145 216.2787" xml:space="preserve" width="512" height="512">
<g>
	<path fill="#D0E8FF" d="M178.2129,45.8099c-0.8398,0-1.6699,0.0391-2.4883,0.1172c-1.8496,0.2305-3.584-0.9492-4.1719-2.7109   c-3.9824-11.9063-15.543-19.9063-28.7695-19.9063c-16.6309,0-30.1621,12.7852-30.1621,28.5c0,1.0938-0.4473,2.1523-1.2383,2.9102   c-0.7891,0.7539-1.8594,1.168-2.9473,1.1172c-11.3613-0.4922-21.1211,8.4766-21.1211,19.7227   c0,10.5195,8.3398,19.1836,18.9883,19.7227c0.0996,0.0078,0.1973,0.0156,0.2969,0.0273h69.8809   c0.1523-0.0195,0.3066-0.0273,0.4629-0.0273c0.0605,0,0.1211,0,0.1816,0.0039c0.3594,0.0156,0.7227,0.0234,1.0879,0.0234   c13.8418,0,25.1016-11.1016,25.1016-24.75C203.3145,56.9115,192.0547,45.8099,178.2129,45.8099z"/>
	<path fill="#1C71DA" d="M178.043,37.8099c-5.8672-13.5742-19.6621-22.5-35.2598-22.5c-19.6602,0-35.8965,14.293-37.9434,32.6094   C90.5527,49.1849,79.3145,61.099,79.3145,75.5599c0,14.6016,11.3906,26.6562,26.0312,27.6797   c0.2441,0.0469,0.4922,0.0703,0.7441,0.0703h70.8574c0.1074,0,0.2129-0.0039,0.3184-0.0117   c0.3145,0.0078,0.6309,0.0117,0.9473,0.0117c18.252,0,33.1016-14.6914,33.1016-32.75   C211.3145,52.4467,196.5547,37.7279,178.043,37.8099z M178.2129,95.3099c-0.3652,0-0.7285-0.0078-1.0879-0.0234   c-0.0606-0.0039-0.1211-0.0039-0.1816-0.0039c-0.1562,0-0.3105,0.0078-0.4629,0.0273h-69.8809   c-0.0996-0.0117-0.1973-0.0195-0.2969-0.0273c-10.6484-0.5391-18.9883-9.2031-18.9883-19.7227   c0-11.2461,9.7598-20.2148,21.1211-19.7227c1.0879,0.0508,2.1582-0.3633,2.9473-1.1172c0.791-0.7578,1.2383-1.8164,1.2383-2.9102   c0-15.7148,13.5312-28.5,30.1621-28.5c13.2266,0,24.7871,8,28.7695,19.9063c0.5879,1.7617,2.3223,2.9414,4.1719,2.7109   c0.8184-0.0781,1.6484-0.1172,2.4883-0.1172c13.8418,0,25.1016,11.1016,25.1016,24.75   C203.3145,84.2084,192.0547,95.3099,178.2129,95.3099z"/>
	<path fill="#1C71DA" d="M115.3145,139.3099v-8H13.6582l7.3125-7.3125l-5.6562-5.6562L1.1719,132.4818   C0.4219,133.2318,0,134.2474,0,135.3099s0.4219,2.0781,1.1719,2.8281l14.1426,14.1406l5.6562-5.6562l-7.3125-7.3125H115.3145z"/>
	<path fill="#1C71DA" d="M147.3145,171.3099v-8H45.6582l7.3125-7.3125l-5.6562-5.6562l-14.1426,14.1406   c-0.75,0.75-1.1719,1.7656-1.1719,2.8281s0.4219,2.0781,1.1719,2.8281l14.1426,14.1406l5.6562-5.6562l-7.3125-7.3125H147.3145z"/>
	<path fill="#1C71DA" d="M175.3145,182.3412l-5.6562,5.6562l7.3125,7.3125H71.3145v8h105.6562l-7.3125,7.3125l5.6562,5.6562   l14.1426-14.1406c0.75-0.75,1.1719-1.7656,1.1719-2.8281s-0.4219-2.0781-1.1719-2.8281L175.3145,182.3412z"/>
</g>
<path fill="#FF5D5D" d="M63.6999,22.1416c-1.0239,0-2.0474-0.3906-2.8286-1.1719c-1.562-1.5615-1.562-4.0947,0-5.6562  L75.0133,1.1719c1.563-1.5625,4.0952-1.5615,5.6572,0s1.562,4.0947,0,5.6562L66.5285,20.9697  C65.7472,21.751,64.7233,22.1416,63.6999,22.1416z"/>
<path fill="#FF5D5D" d="M77.8419,22.1416c-1.0239,0-2.0474-0.3906-2.8286-1.1719L60.8712,6.8281  c-1.562-1.5615-1.562-4.0947,0-5.6562c1.5625-1.5625,4.0947-1.5625,5.6572,0l14.1421,14.1416c1.562,1.5615,1.562,4.0947,0,5.6562  C79.8893,21.751,78.8659,22.1416,77.8419,22.1416z"/>
<path fill="#00D40B" d="M17.6999,78.1416c-7.7197,0-14-6.2803-14-14s6.2803-14,14-14s14,6.2803,14,14  S25.4196,78.1416,17.6999,78.1416z M17.6999,58.1416c-3.3086,0-6,2.6914-6,6s2.6914,6,6,6s6-2.6914,6-6  S21.0084,58.1416,17.6999,58.1416z"/>
<path fill="#FFC504" d="M147.0133,140.7695c-1.0239,0-2.0474-0.3906-2.8286-1.1719l-11.3135-11.3135  c-1.562-1.5615-1.562-4.0947,0-5.6562l11.3135-11.3145c0.75-0.75,1.7676-1.1719,2.8286-1.1719s2.0781,0.4219,2.8286,1.1719  l11.314,11.3145c0.75,0.75,1.1714,1.7676,1.1714,2.8281s-0.4214,2.0781-1.1719,2.8281l-11.314,11.3135  C149.0607,140.3789,148.0368,140.7695,147.0133,140.7695z M141.3566,125.4561l5.6567,5.6562l5.6572-5.6562l-5.6572-5.6572  L141.3566,125.4561z"/>
</svg>
