<?xml version="1.0" encoding="iso-8859-1"?>
<!-- Generator: Adobe Illustrator 17.1.0, SVG Export Plug-In . SVG Version: 6.00 Build 0)  -->
<!DOCTYPE svg PUBLIC "-//W3C//DTD SVG 1.1//EN" "http://www.w3.org/Graphics/SVG/1.1/DTD/svg11.dtd">
<svg fill="white" version="1.1" id="Capa_1" xmlns="http://www.w3.org/2000/svg" xmlns:xlink="http://www.w3.org/1999/xlink" x="0px" y="0px"
	 viewBox="0 0 322.881 322.881" style="enable-background:new 0 0 322.881 322.881;" xml:space="preserve">
<g>
	<path d="M161.288,106.839c-3.304,2.498-3.957,7.201-1.459,10.506c18.253,24.142,48.873,70.369,48.873,108.734
		c0,50.641-34.336,68.684-66.47,68.684c-49.062,0-66.47-36.999-66.47-68.684c0-68.843,70.861-135.59,71.574-136.254
		c3.035-2.819,3.209-7.564,0.39-10.599c-2.818-3.034-7.565-3.209-10.599-0.39c-0.779,0.723-19.286,18.023-38.017,44.671
		C73.665,159.71,60.763,194.22,60.763,226.079c0,41.653,25.191,83.684,81.47,83.684c26.266,0,47.812-9.126,62.307-26.391
		c12.357-14.719,19.163-35.065,19.163-57.293c0-40.603-28.228-86.461-51.908-117.781
		C169.297,104.994,164.593,104.34,161.288,106.839z"/>
	<path d="M75.795,97.802c0-12.238-5.541-26.705-16.47-42.999C51.475,43.099,43.694,34.769,43.366,34.42
		c-2.834-3.02-7.58-3.173-10.601-0.337c-3.021,2.834-3.172,7.58-0.337,10.601c7.89,8.408,28.366,34.341,28.366,53.118
		c0,5.585-1.651,23.808-22.897,23.808C21.016,121.609,15,109.312,15,97.802c0-9.398,3.538-19.847,10.515-31.055
		c2.188-3.517,1.113-8.142-2.403-10.331c-3.516-2.187-8.142-1.112-10.331,2.403C4.3,72.443,0,85.559,0,97.802
		c0,10.137,3.213,19.515,9.046,26.408c4.787,5.656,13.679,12.399,28.852,12.399C64.077,136.609,75.795,117.118,75.795,97.802z"/>
	<path d="M277.6,15.486c-2.824-3.011-7.55-3.172-10.573-0.363c-0.466,0.433-11.519,10.765-22.656,26.61
		c-15.255,21.702-22.989,42.482-22.989,61.765c0,13.673,4.305,26.289,12.12,35.524c9.146,10.808,22.504,16.521,38.63,16.521
		c35.058,0,50.75-26.14,50.75-52.045C322.881,64.191,279.449,17.456,277.6,15.486z M272.131,140.543
		c-17.282,0-35.75-9.731-35.75-37.045c0-30.145,24.336-59.855,35.444-71.847c11.066,13.149,36.056,45.736,36.056,71.847
		C307.881,121.406,298.489,140.543,272.131,140.543z"/>
</g>
<g>
</g>
<g>
</g>
<g>
</g>
<g>
</g>
<g>
</g>
<g>
</g>
<g>
</g>
<g>
</g>
<g>
</g>
<g>
</g>
<g>
</g>
<g>
</g>
<g>
</g>
<g>
</g>
<g>
</g>
</svg>
